# xmcd
#
# Track frame offsets:
#	150
#	12828
#	25467
#	37865
#	50012
#	62647
#	75364
#	88728
#	102719
#	114926
#	129320
#	140897
#	154301
#
# Disc length: 2201 seconds
#
# Revision: 1
# Processed by: cddbd v1.4b42PL1 Copyright (c) Steve Scherf et al.
# Submitted via: audiograbber 1.80
#
DISCID=a908970d
DTITLE=Sonny Terry - Nothing But The Blues - Sonny Terry
DYEAR=1900
DGENRE=
TTITLE0=Early Morning Blues
TTITLE1=Riff And Harmonica Jump
TTITLE2=Beer Garden Blues
TTITLE3=Worried Man Blues
TTITLE4=Airplane Blues
TTITLE5=Screamin' And Cryin' Blues
TTITLE6=Custard Pie Blues
TTITLE7=All Alone Blues
TTITLE8=Whoopin' The Blues
TTITLE9=Hot Headed Woman
TTITLE10=Crow Jane Blues
TTITLE11=Leavin' Blues
TTITLE12=Harmonica Rag
EXTD=
EXTT0=
EXTT1=
EXTT2=
EXTT3=
EXTT4=
EXTT5=
EXTT6=
EXTT7=
EXTT8=
EXTT9=
EXTT10=
EXTT11=
EXTT12=
PLAYORDER=
